<svg width="20" height="20" viewBox="0 0 20 20" fill="none" xmlns="http://www.w3.org/2000/svg">
<g id="Icon">
<path id="Vector" d="M17.4874 10.405C17.4093 11.8518 16.9138 13.245 16.0608 14.4162C15.2078 15.5874 14.0338 16.4864 12.6807 17.0047C11.3277 17.5229 9.85349 17.6381 8.43637 17.3363C7.01924 17.0346 5.71985 16.3288 4.69527 15.3043C3.67069 14.2799 2.96479 12.9806 2.6629 11.5635C2.36101 10.1464 2.47605 8.67217 2.99412 7.31906C3.51219 5.96595 4.4111 4.79187 5.5822 3.93874C6.7533 3.08562 8.14644 2.58997 9.59322 2.51171C9.93072 2.49338 10.1074 2.89505 9.92822 3.18088C9.32896 4.13968 9.07237 5.27327 9.2003 6.39667C9.32824 7.52007 9.83316 8.56695 10.6327 9.36645C11.4322 10.1659 12.479 10.6709 13.6024 10.7988C14.7258 10.9267 15.8594 10.6701 16.8182 10.0709C17.1049 9.89171 17.5057 10.0675 17.4874 10.405Z" stroke="#00A372" stroke-width="1.5" stroke-linecap="round" stroke-linejoin="round"/>
</g>

</svg>
