<svg viewBox="0 0 24 24" fill="none" xmlns="http://www.w3.org/2000/svg" x="0" y="0"><defs><clipPath id="clip1_40_271">
<rect width="24" height="24" fill="white" transform="translate(0, 0)"/>
</clipPath></defs><g id="settings" clip-path="url(#clip1_40_271)">
<path id="Vector_8" d="M12,15c1.657,0 3,-1.34 3,-3c0,-1.66 -1.343,-3 -3,-3c-1.657,0 -3,1.34 -3,3c0,1.66 1.343,3 3,3z" stroke="#099101" stroke-width="2" stroke-linecap="round" stroke-linejoin="round"/>
<path id="Vector_9" d="M19.4,15c-0.133,0.3 -0.173,0.64 -0.114,0.96c0.059,0.32 0.213,0.62 0.444,0.86l0.06,0.06c0.186,0.19 0.333,0.41 0.434,0.65c0.101,0.24 0.153,0.5 0.153,0.77c0,0.26 -0.052,0.52 -0.153,0.76c-0.101,0.24 -0.248,0.46 -0.434,0.65c-0.186,0.19 -0.406,0.33 -0.649,0.43c-0.243,0.1 -0.503,0.16 -0.766,0.16c-0.263,0 -0.523,-0.06 -0.766,-0.16c-0.243,-0.1 -0.463,-0.24 -0.649,-0.43l-0.06,-0.06c-0.236,-0.23 -0.535,-0.39 -0.859,-0.44c-0.325,-0.06 -0.659,-0.02 -0.961,0.11c-0.296,0.13 -0.548,0.34 -0.726,0.61c-0.177,0.26 -0.273,0.58 -0.274,0.9v0.17c0,0.53 -0.211,1.04 -0.586,1.41c-0.375,0.38 -0.884,0.59 -1.414,0.59c-0.53,0 -1.039,-0.21 -1.414,-0.59c-0.375,-0.37 -0.586,-0.88 -0.586,-1.41v-0.09c-0.008,-0.33 -0.115,-0.65 -0.307,-0.92c-0.193,-0.27 -0.462,-0.48 -0.773,-0.59c-0.302,-0.13 -0.636,-0.17 -0.961,-0.11c-0.324,0.05 -0.623,0.21 -0.859,0.44l-0.06,0.06c-0.186,0.19 -0.406,0.33 -0.649,0.43c-0.243,0.1 -0.503,0.16 -0.766,0.16c-0.263,0 -0.523,-0.06 -0.766,-0.16c-0.243,-0.1 -0.463,-0.24 -0.649,-0.43c-0.186,-0.19 -0.333,-0.41 -0.434,-0.65c-0.101,-0.24 -0.153,-0.5 -0.153,-0.76c0,-0.27 0.052,-0.53 0.153,-0.77c0.101,-0.24 0.248,-0.46 0.434,-0.65l0.06,-0.06c0.231,-0.24 0.385,-0.54 0.444,-0.86c0.059,-0.32 0.019,-0.66 -0.114,-0.96c-0.127,-0.3 -0.337,-0.55 -0.606,-0.73c-0.268,-0.17 -0.582,-0.27 -0.904,-0.27h-0.17c-0.53,0 -1.039,-0.21 -1.414,-0.59c-0.375,-0.37 -0.586,-0.88 -0.586,-1.41c0,-0.53 0.211,-1.04 0.586,-1.41c0.375,-0.38 0.884,-0.59 1.414,-0.59h0.09c0.331,-0.01 0.652,-0.11 0.921,-0.31c0.27,-0.19 0.475,-0.46 0.589,-0.77c0.133,-0.3 0.173,-0.64 0.114,-0.96c-0.059,-0.32 -0.213,-0.62 -0.444,-0.86l-0.06,-0.06c-0.186,-0.19 -0.333,-0.41 -0.434,-0.65c-0.101,-0.24 -0.153,-0.5 -0.153,-0.77c0,-0.26 0.052,-0.52 0.153,-0.76c0.101,-0.24 0.248,-0.46 0.434,-0.65c0.186,-0.19 0.406,-0.33 0.649,-0.43c0.243,-0.1 0.503,-0.16 0.766,-0.16c0.263,0 0.523,0.06 0.766,0.16c0.243,0.1 0.463,0.24 0.649,0.43l0.06,0.06c0.236,0.23 0.535,0.39 0.859,0.44c0.325,0.06 0.659,0.02 0.961,-0.11h0.08c0.296,-0.13 0.548,-0.34 0.726,-0.61c0.177,-0.26 0.273,-0.58 0.274,-0.9v-0.17c0,-0.53 0.211,-1.04 0.586,-1.41c0.375,-0.38 0.884,-0.59 1.414,-0.59c0.53,0 1.039,0.21 1.414,0.59c0.375,0.37 0.586,0.88 0.586,1.41v0.09c0.001,0.32 0.097,0.64 0.274,0.9c0.178,0.27 0.43,0.48 0.726,0.61c0.302,0.13 0.636,0.17 0.961,0.11c0.324,-0.05 0.623,-0.21 0.859,-0.44l0.06,-0.06c0.186,-0.19 0.406,-0.33 0.649,-0.43c0.243,-0.1 0.503,-0.16 0.766,-0.16c0.263,0 0.523,0.06 0.766,0.16c0.243,0.1 0.463,0.24 0.649,0.43c0.186,0.19 0.333,0.41 0.434,0.65c0.101,0.24 0.153,0.5 0.153,0.76c0,0.27 -0.052,0.53 -0.153,0.77c-0.101,0.24 -0.248,0.46 -0.434,0.65l-0.06,0.06c-0.231,0.24 -0.385,0.54 -0.444,0.86c-0.059,0.32 -0.019,0.66 0.114,0.96v0.08c0.127,0.3 0.337,0.55 0.606,0.73c0.268,0.17 0.582,0.27 0.904,0.27h0.17c0.53,0 1.039,0.21 1.414,0.59c0.375,0.37 0.586,0.88 0.586,1.41c0,0.53 -0.211,1.04 -0.586,1.41c-0.375,0.38 -0.884,0.59 -1.414,0.59h-0.09c-0.322,0 -0.636,0.1 -0.904,0.27c-0.269,0.18 -0.479,0.43 -0.606,0.73z" stroke="#099101" stroke-width="2" stroke-linecap="round" stroke-linejoin="round"/>
</g></svg>